<?xml version="1.0" encoding="UTF-8"?>
<svg version="1.1" xmlns="http://www.w3.org/2000/svg" width="60" height="60">
<path d="M0 0 C10.84890282 -0.78996865 10.84890282 -0.78996865 15.1875 2.1875 C16.115625 3.115625 17.04375 4.04375 18 5 C20.93112528 6.79853459 23.95229365 8.40842002 27 10 C27 10.66 27 11.32 27 12 C27.99 12.33 28.98 12.66 30 13 C32.11912545 17.2382509 31.25196473 22.11812346 30 26.5 C29.67 27.325 29.34 28.15 29 29 C29.66 29.66 30.32 30.32 31 31 C31.14507695 33.74485593 31.18652423 36.38480543 31.125 39.125 C31.11597656 39.87910156 31.10695312 40.63320313 31.09765625 41.41015625 C31.0740687 43.27357254 31.03819719 45.13682593 31 47 C29.35 47 27.7 47 26 47 C25.67 51.29 25.34 55.58 25 60 C23.35 60 21.7 60 20 60 C20 55.71 20 51.42 20 47 C18.370625 47.474375 16.74125 47.94875 15.0625 48.4375 C14.14597656 48.70433594 13.22945312 48.97117188 12.28515625 49.24609375 C10.0597507 49.79026051 10.0597507 49.79026051 9 51 C4.08698503 51.45702465 1.27870173 50.32538138 -3 48 C-4.32 47.67 -5.64 47.34 -7 47 C-7.33 51.29 -7.66 55.58 -8 60 C-9.32 60 -10.64 60 -12 60 C-13.32229189 57.35541621 -13.09677194 55.32238699 -13.0625 52.375 C-13.05347656 51.37210938 -13.04445313 50.36921875 -13.03515625 49.3359375 C-13.01775391 48.17964844 -13.01775391 48.17964844 -13 47 C-14.98 47 -16.96 47 -19 47 C-19.02691685 44.54159395 -19.04679802 42.08348118 -19.0625 39.625 C-19.07087891 38.92632812 -19.07925781 38.22765625 -19.08789062 37.5078125 C-19.11328125 32.2265625 -19.11328125 32.2265625 -18 30 C-17.34 30 -16.68 30 -16 30 C-16.48919922 28.93845703 -16.48919922 28.93845703 -16.98828125 27.85546875 C-18.06967515 24.80334929 -18.23586788 22.53555965 -18.1875 19.3125 C-18.18105469 18.35988281 -18.17460937 17.40726563 -18.16796875 16.42578125 C-18 14 -18 14 -17 12 C-16.34 12 -15.68 12 -15 12 C-15 11.34 -15 10.68 -15 10 C-14.40832031 9.67386719 -13.81664062 9.34773437 -13.20703125 9.01171875 C-5.57816039 5.55615156 -5.57816039 5.55615156 0 0 Z M-0.3125 4.75 C-3.08772846 6.69905025 -5.80886736 8.48947687 -8.8125 10.0625 C-12.2155695 12.13103244 -14.09056064 13.49936118 -16 17 C-16.2031573 21.54333609 -15.07289503 25.96937078 -13 30 C-11.54166642 31.62514468 -11.54166642 31.62514468 -10 33 C-9.34 33.99 -8.68 34.98 -8 36 C-4.04 35.34 -0.08 34.68 4 34 C0.14050934 31.96537393 0.14050934 31.96537393 -3.5625 30.75 C-7.6957564 28.64579674 -8.5740519 27.36172361 -10 23 C-10.62930078 16.81187569 -10.62930078 16.81187569 -8.734375 14.3671875 C-3.59276893 10.31411965 4.73980881 10.45925259 11 11 C14.36407058 11.54654368 17.68174028 12.22412299 21 13 C21 13.66 21 14.32 21 15 C21.66 15 22.32 15 23 15 C22.7354933 20.95140066 22.27996341 25.50603842 18 30 C15.07073825 31.33331914 12.1232809 32.23920081 9 33 C9 33.33 9 33.66 9 34 C13.29 34.66 17.58 35.32 22 36 C22.33 34.35 22.66 32.7 23 31 C23.639375 30.4225 24.27875 29.845 24.9375 29.25 C27.8887757 26.03042651 28.80125514 22.34181086 29 18 C28.12255919 15.76332473 28.12255919 15.76332473 27 14 C26.34 14 25.68 14 25 14 C25 13.34 25 12.68 25 12 C22.9411239 10.57187785 20.90229066 9.2720176 18.75 8 C17.87021484 7.46632813 17.87021484 7.46632813 16.97265625 6.921875 C8.51381769 1.4884219 8.51381769 1.4884219 -0.3125 4.75 Z M-7 16 C-8.38174021 17.80514456 -8.38174021 17.80514456 -9 20 C-8.4922694 22.13079397 -8.4922694 22.13079397 -7.3125 24.125 C-6.95800781 24.80820312 -6.60351562 25.49140625 -6.23828125 26.1953125 C-4.52576134 28.6911617 -2.74933896 29.83495909 0.19921875 30.484375 C6.00939703 31.10461381 10.49696408 31.08735845 16 29 C18.83726222 26.38098872 19.83112998 24.56290007 20.9375 20.875 C21.25615175 18.06854765 21.25615175 18.06854765 19.9375 16.25 C12.14214355 11.22073778 0.88473563 11.2005957 -7 16 Z M-15 32 C-16.31262571 33.08552366 -16.31262571 33.08552366 -16.09765625 35.72265625 C-16.08605469 36.82480469 -16.07445312 37.92695312 -16.0625 39.0625 C-16.05347656 40.16722656 -16.04445313 41.27195312 -16.03515625 42.41015625 C-16.02355469 43.26480469 -16.01195312 44.11945312 -16 45 C-14.21142578 45.07347656 -14.21142578 45.07347656 -12.38671875 45.1484375 C-10.82028932 45.22347604 -9.25388421 45.2990234 -7.6875 45.375 C-6.90181641 45.4059375 -6.11613281 45.436875 -5.30664062 45.46875 C-4.1706543 45.52675781 -4.1706543 45.52675781 -3.01171875 45.5859375 C-1.96697388 45.63306885 -1.96697388 45.63306885 -0.90112305 45.68115234 C1 46 1 46 4 48 C6.63434254 47.67873872 8.62710097 47.18644952 11 46 C12.3734635 45.84995027 13.7528526 45.75161994 15.1328125 45.68359375 C16.34130859 45.62075195 16.34130859 45.62075195 17.57421875 45.55664062 C18.41597656 45.51732422 19.25773437 45.47800781 20.125 45.4375 C21.39923828 45.37272461 21.39923828 45.37272461 22.69921875 45.30664062 C24.79928223 45.20045764 26.89961948 45.09971503 29 45 C29 41.04 29 37.08 29 33 C28.01 32.67 27.02 32.34 26 32 C25.34 32.33 24.68 32.66 24 33 C24 35.31 24 37.62 24 40 C12.12 40 0.24 40 -12 40 C-12 37.69 -12 35.38 -12 33 C-12.99 32.67 -13.98 32.34 -15 32 Z M-4 37 C-4 37.33 -4 37.66 -4 38 C2.93 38 9.86 38 17 38 C17 37.67 17 37.34 17 37 C9.83834298 35.8063905 3.18957421 35.56208516 -4 37 Z M22 47 C23 51 23 51 23 51 Z " fill="#333333" transform="translate(24,0)"/>
</svg>
