<?xml version="1.0" encoding="UTF-8"?>
<svg version="1.1" xmlns="http://www.w3.org/2000/svg" width="60" height="60">
<path d="M0 0 C1.47583955 0.0001591 2.95168467 0.00585225 4.42749023 0.01586914 C5.20293686 0.01728409 5.97838348 0.01869904 6.77732849 0.02015686 C9.26361893 0.02577194 11.74982059 0.03832693 14.23608398 0.05102539 C15.91772331 0.05603845 17.59936405 0.06060169 19.28100586 0.06469727 C23.41192728 0.07489707 27.5426558 0.09446934 31.67358398 0.11352539 C31.67358398 6.38352539 31.67358398 12.65352539 31.67358398 19.11352539 C35.63358398 19.11352539 39.59358398 19.11352539 43.67358398 19.11352539 C43.34358398 27.69352539 43.01358398 36.27352539 42.67358398 45.11352539 C38.05358398 45.11352539 33.43358398 45.11352539 28.67358398 45.11352539 C28.67358398 42.80352539 28.67358398 40.49352539 28.67358398 38.11352539 C18.77358398 38.11352539 8.87358398 38.11352539 -1.32641602 38.11352539 C-1.32641602 40.42352539 -1.32641602 42.73352539 -1.32641602 45.11352539 C-5.94641602 45.11352539 -10.56641602 45.11352539 -15.32641602 45.11352539 C-15.65641602 36.53352539 -15.98641602 27.95352539 -16.32641602 19.11352539 C-12.36641602 19.11352539 -8.40641602 19.11352539 -4.32641602 19.11352539 C-4.33801758 17.82575195 -4.34961914 16.53797852 -4.36157227 15.21118164 C-4.37094871 13.53279767 -4.38004907 11.85441213 -4.38891602 10.17602539 C-4.39729492 9.32588867 -4.40567383 8.47575195 -4.41430664 7.59985352 C-4.4175293 6.7909668 -4.42075195 5.98208008 -4.42407227 5.14868164 C-4.42930908 4.39981689 -4.4345459 3.65095215 -4.43994141 2.87939453 C-4.23117714 -0.3679 -3.32117838 0.11334664 0 0 Z M-1.32641602 3.11352539 C-1.32641602 8.39352539 -1.32641602 13.67352539 -1.32641602 19.11352539 C-0.33641602 19.11352539 0.65358398 19.11352539 1.67358398 19.11352539 C1.67358398 20.76352539 1.67358398 22.41352539 1.67358398 24.11352539 C0.68358398 24.11352539 -0.30641602 24.11352539 -1.32641602 24.11352539 C-1.32641602 24.77352539 -1.32641602 25.43352539 -1.32641602 26.11352539 C8.57358398 26.11352539 18.47358398 26.11352539 28.67358398 26.11352539 C28.67358398 25.45352539 28.67358398 24.79352539 28.67358398 24.11352539 C27.68358398 24.11352539 26.69358398 24.11352539 25.67358398 24.11352539 C26.04858398 22.17602539 26.04858398 22.17602539 26.67358398 20.11352539 C27.33358398 19.78352539 27.99358398 19.45352539 28.67358398 19.11352539 C28.67358398 13.83352539 28.67358398 8.55352539 28.67358398 3.11352539 C18.77358398 3.11352539 8.87358398 3.11352539 -1.32641602 3.11352539 Z M-12.32641602 24.11352539 C-12.32641602 30.05352539 -12.32641602 35.99352539 -12.32641602 42.11352539 C-9.68641602 42.11352539 -7.04641602 42.11352539 -4.32641602 42.11352539 C-4.32641602 36.17352539 -4.32641602 30.23352539 -4.32641602 24.11352539 C-6.96641602 24.11352539 -9.60641602 24.11352539 -12.32641602 24.11352539 Z M31.67358398 24.11352539 C31.67358398 30.05352539 31.67358398 35.99352539 31.67358398 42.11352539 C34.64358398 42.11352539 37.61358398 42.11352539 40.67358398 42.11352539 C40.67358398 36.17352539 40.67358398 30.23352539 40.67358398 24.11352539 C37.70358398 24.11352539 34.73358398 24.11352539 31.67358398 24.11352539 Z M-1.32641602 29.11352539 C-1.32641602 30.10352539 -1.32641602 31.09352539 -1.32641602 32.11352539 C8.57358398 32.11352539 18.47358398 32.11352539 28.67358398 32.11352539 C28.67358398 31.12352539 28.67358398 30.13352539 28.67358398 29.11352539 C18.77358398 29.11352539 8.87358398 29.11352539 -1.32641602 29.11352539 Z " fill="#333333" transform="translate(16.326416015625,6.886474609375)"/>
</svg>
