<?xml version="1.0" encoding="UTF-8"?>
<svg version="1.1" xmlns="http://www.w3.org/2000/svg" width="60" height="60" viewBox="0 0 80 80">
<path d="M0 0 C19.14 0 38.28 0 58 0 C58 3.96 58 7.92 58 12 C61.63 12 65.26 12 69 12 C68.67 19.26 68.34 26.52 68 34 C64.04 34 60.08 34 56 34 C56 32.68 56 31.36 56 30 C38.51 30 21.02 30 3 30 C3 31.32 3 32.64 3 34 C-0.96 34 -4.92 34 -9 34 C-9 28.39 -9 22.78 -9 17 C-9.66 17 -10.32 17 -11 17 C-11 15.35 -11 13.7 -11 12 C-7.37 12 -3.74 12 0 12 C0 8.04 0 4.08 0 0 Z M3 2 C3 7.28 3 12.56 3 18 C7.95 18 12.9 18 18 18 C18 12.72 18 7.44 18 2 C13.05 2 8.1 2 3 2 Z M21 2 C21 7.28 21 12.56 21 18 C26.28 18 31.56 18 37 18 C37 12.72 37 7.44 37 2 C31.72 2 26.44 2 21 2 Z M40 2 C40 7.28 40 12.56 40 18 C45.28 18 50.56 18 56 18 C55.34 17.67 54.68 17.34 54 17 C54 15.35 54 13.7 54 12 C54.66 12 55.32 12 56 12 C56 8.7 56 5.4 56 2 C50.72 2 45.44 2 40 2 Z M-7 17 C-7 21.95 -7 26.9 -7 32 C-4.69 32 -2.38 32 0 32 C0 27.05 0 22.1 0 17 C-2.31 17 -4.62 17 -7 17 Z M58 17 C58 21.95 58 26.9 58 32 C60.31 32 62.62 32 65 32 C65 27.05 65 22.1 65 17 C62.69 17 60.38 17 58 17 Z M3 20 C3 21.32 3 22.64 3 24 C20.49 24 37.98 24 56 24 C56 22.68 56 21.36 56 20 C38.51 20 21.02 20 3 20 Z " fill="#333333" transform="translate(11,23)"/>
</svg>
